<?xml version="1.0"?>
<svg version="1.1" xmlns="http://www.w3.org/2000/svg" width="200" height="67" style=""><path fill="#0d75bf" d="M16.39990234375,27.900390625q0-1.07861328125,0.057373046875-2.13427734375t0.195068359375-2.08837890625q0.091796875-0.52783203125,0.814697265625-0.75732421875t1.204833984375-0.2294921875l0.55078125,0.0458984375q0.66552734375,0.091796875,1.342529296875-0.091796875t1.342529296875-0.18359375q1.560546875,0,3.48828125,0.34423828125t3.614501953125,1.17041015625t2.834228515625,2.168701171875t1.1474609375,3.316162109375t-1.193359375,3.683349609375t-3.00634765625,3.00634765625t-3.9013671875,2.031005859375t-3.83251953125,0.734375q0.18359375,4.42919921875,0.516357421875,8.78955078125t1.135986328125,8.720703125l0.0458984375,0.29833984375q0,0.3212890625-0.286865234375,0.52783203125t-0.677001953125,0.332763671875t-0.791748046875,0.172119140625t-0.654052734375,0.0458984375q-0.57373046875,0-1.388427734375-0.218017578125t-0.998291015625-0.860595703125q-0.52783203125-2.01953125-0.826171875-4.440673828125t-0.43603515625-5.060302734375t-0.195068359375-5.312744140625t-0.057373046875-5.220947265625l0-5.16357421875q0-0.84912109375-0.02294921875-1.76708984375t-0.02294921875-1.85888671875z M20.7373046875,24.1826171875q0,3.14404296875,0.06884765625,6.276611328125t0.16064453125,6.276611328125q1.35400390625-0.275390625,2.765380859375-0.975341796875t2.54736328125-1.663818359375t1.8359375-2.191650390625t0.699951171875-2.581787109375q0-1.21630859375-0.608154296875-2.18017578125t-1.572021484375-1.65234375q-0.94091796875-0.66552734375-2.13427734375-1.03271484375q-1.0556640625-0.3212890625-2.0654296875-0.3212890625l-0.25244140625,0z M37.689204101562,25.5595703125q0-1.07861328125,0.263916015625-1.572021484375t0.75732421875-0.6884765625t1.193359375-0.149169921875t1.640869140625,0.0458984375q2.38671875,0,4.8193359375,0.734375t4.38330078125,2.145751953125t3.14404296875,3.476806640625t1.193359375,4.75048828125q0,1.7900390625-0.516357421875,3.385009765625t-1.457275390625,2.9833984375t-2.203125,2.535888671875t-2.77685546875,1.99658203125q0.61962890625,0.61962890625,1.6064453125,2.191650390625t1.95068359375,3.3505859375t1.709716796875,3.453857421875t0.883544921875,2.5244140625l-0.275390625,0.4130859375q-0.61962890625,0.3671875-1.49169921875,0.39013671875q-0.4130859375,0-1.07861328125-0.103271484375t-0.84912109375-0.608154296875q-0.94091796875-2.63916015625-2.053955078125-5.43896484375t-2.742431640625-5.048828125l0-0.0458984375q-0.57373046875,0.2294921875-1.135986328125,0.447509765625t-1.135986328125,0.401611328125q0.18359375,2.54736328125,0.378662109375,5.014404296875t0.195068359375,4.991455078125q0,0.3212890625-0.309814453125,0.516357421875t-0.699951171875,0.309814453125t-0.791748046875,0.16064453125t-0.654052734375,0.0458984375q-0.2294921875,0-0.654052734375-0.0458984375t-0.814697265625-0.16064453125t-0.677001953125-0.332763671875t-0.286865234375-0.585205078125q0-2.54736328125-0.11474609375-5.083251953125t-0.25244140625-5.060302734375q-0.71142578125-0.458984375-0.71142578125-1.193359375q0-0.57373046875,0.55078125-0.7802734375q-0.275390625-4.84228515625-0.631103515625-9.66162109375t-0.355712890625-9.70751953125z M41.843012695312,24.84814453125q0.3212890625,4.97998046875,0.722900390625,9.84521484375t0.768798828125,9.84521484375q1.6064453125-0.458984375,2.994873046875-1.594970703125t2.398193359375-2.558837890625t1.572021484375-3.09814453125t0.562255859375-3.32763671875q0-1.8359375-0.734375-3.522705078125t-1.95068359375-2.948974609375q-1.2392578125-1.26220703125-2.845703125-1.9736328125q-1.4228515625-0.61962890625-2.9833984375-0.61962890625l-0.4130859375,0z M59.781728515625,56.6787109375q0.091796875-4.79638671875,0.401611328125-9.56982421875t0.539306640625-9.56982421875q0.0458984375-1.8359375,0.0458984375-3.339111328125t0.149169921875-2.604736328125t0.55078125-1.686767578125t1.342529296875-0.585205078125q0.80322265625,0,1.21630859375,0.2294921875t0.631103515625,0.585205078125t0.263916015625,0.80322265625t0.0458984375,0.906494140625q0,0.66552734375,0.0458984375,1.319580078125t0.0458984375,1.319580078125q0,4.84228515625-0.263916015625,9.66162109375t-0.263916015625,9.70751953125q0,0.71142578125,0.02294921875,1.434326171875t0.02294921875,1.480224609375q0,0.275390625-0.25244140625,0.458984375t-0.631103515625,0.309814453125t-0.80322265625,0.172119140625t-0.699951171875,0.0458984375q-0.3212890625,0-0.722900390625-0.0458984375t-0.7802734375-0.195068359375t-0.642578125-0.355712890625t-0.263916015625-0.48193359375z M61.066884765625,25.5595703125q0-0.2294921875,0.06884765625-0.516357421875t0.16064453125-0.516357421875q0.0458984375-0.275390625,0.1376953125-0.94091796875t0.332763671875-1.296630859375t0.66552734375-1.12451171875t1.204833984375-0.493408203125l0.43603515625,0q0.3671875,0.091796875,0.745849609375,0.2294921875t0.378662109375,0.66552734375q0,0.2294921875-0.02294921875,0.43603515625t-0.06884765625,0.458984375q-0.18359375,1.35400390625-0.355712890625,2.13427734375t-0.401611328125,1.181884765625t-0.585205078125,0.516357421875t-0.906494140625,0.16064453125q-0.18359375,0-0.493408203125-0.02294921875t-0.5966796875-0.11474609375t-0.493408203125-0.286865234375t-0.20654296875-0.470458984375z M69.940659179688,34.94580078125q0-0.89501953125,0.057373046875-2.627685546875t0.172119140625-3.614501953125t0.29833984375-3.522705078125t0.52783203125-2.352294921875q0.18359375-0.3671875,0.562255859375-0.493408203125t0.745849609375-0.126220703125q0.2294921875,0,0.768798828125,0.126220703125t0.539306640625,0.493408203125q0,0.57373046875-0.1376953125,2.168701171875t-0.25244140625,3.660400390625t-0.16064453125,4.29150390625l0,0.98681640625q0,1.67529296875,0.11474609375,3.14404296875q0.16064453125,1.8818359375,0.608154296875,3.09814453125t1.342529296875,1.21630859375q1.21630859375,0,2.27197265625-0.722900390625t1.927734375-1.8818359375t1.572021484375-2.59326171875t1.193359375-2.82275390625t0.826171875-2.558837890625t0.470458984375-1.8359375q0.1376953125-0.75732421875,0.240966796875-2.01953125t0.332763671875-2.478515625t0.814697265625-2.111328125t1.709716796875-0.89501953125q0.66552734375,0,1.273681640625,0.2294921875t0.791748046875,0.98681640625q-0.3671875,1.39990234375-0.61962890625,3.889892578125t-0.401611328125,5.220947265625t-0.218017578125,5.289794921875t-0.06884765625,4.165283203125q0,1.7900390625,0.0458984375,4.371826171875t0.16064453125,5.335693359375t0.263916015625,5.358642578125t0.332763671875,4.348876953125q0.18359375,0.3671875,0.18359375,0.84912109375q0,0.57373046875-0.2294921875,0.89501953125t-0.631103515625,0.48193359375t-0.8720703125,0.20654296875t-0.906494140625,0.0458984375q-0.66552734375,0-1.480224609375-0.2294921875t-0.998291015625-0.94091796875q-0.2294921875-0.84912109375-0.378662109375-2.237548828125t-0.218017578125-3.029296875t-0.11474609375-3.430908203125t-0.0458984375-3.430908203125t0.02294921875-3.05224609375t0.02294921875-2.306396484375q0-1.744140625,0.06884765625-3.430908203125t0.16064453125-3.430908203125q-0.57373046875,1.17041015625-1.342529296875,2.375244140625t-1.755615234375,2.191650390625t-2.203125,1.617919921875t-2.63916015625,0.631103515625q-1.8359375,0-2.7998046875-0.98681640625t-1.39990234375-2.444091796875t-0.493408203125-3.09814453125t-0.057373046875-2.971923828125z M93.111796875,56.47216796875q0-0.1376953125,0.091796875-0.975341796875t0.240966796875-2.04248046875t0.332763671875-2.59326171875t0.3212890625-2.627685546875t0.240966796875-2.18017578125t0.103271484375-1.26220703125q-0.18359375-0.091796875-0.447509765625-0.263916015625t-0.263916015625-0.401611328125q0-0.3212890625,0.309814453125-0.516357421875t0.539306640625-0.286865234375q0.091796875-1.17041015625,0.2294921875-3.2587890625t0.424560546875-4.509521484375t0.80322265625-4.9111328125t1.365478515625-4.52099609375t2.04248046875-3.316162109375t2.9375-1.28515625t2.8916015625,1.1015625t1.870361328125,2.86865234375t1.1015625,3.92431640625t0.57373046875,4.29150390625t0.240966796875,3.9931640625t0.091796875,2.9833984375q0.0458984375,0.71142578125,0.34423828125,0.952392578125t0.654052734375,0.332763671875t0.642578125,0.20654296875t0.286865234375,0.57373046875q0,0.52783203125-0.642578125,0.734375t-1.009765625,0.25244140625q0.2294921875,2.86865234375,0.631103515625,5.6455078125t1.067138671875,5.599609375q0.091796875,0.52783203125,0.25244140625,1.067138671875t0.16064453125,1.044189453125q0,0.3671875-0.25244140625,0.608154296875t-0.654052734375,0.378662109375t-0.80322265625,0.18359375t-0.677001953125,0.0458984375q-1.03271484375,0-1.744140625-0.39013671875t-0.94091796875-1.49169921875q-0.61962890625-2.96044921875-1.21630859375-6.21923828125q-0.5048828125-2.82275390625-0.5048828125-5.48486328125q0-0.4130859375,0.02294921875-0.826171875q-1.927734375,0-3.87841796875,0.091796875t-3.74072265625,0.6884765625q-0.0458984375,0.61962890625-0.2294921875,2.3408203125t-0.4130859375,3.69482421875t-0.470458984375,3.775146484375t-0.286865234375,2.558837890625q-0.0458984375,0.3212890625-0.470458984375,0.608154296875t-0.91796875,0.309814453125t-0.8720703125-0.309814453125t-0.378662109375-1.181884765625z M97.40330078125,42.56494140625q1.7900390625-0.4130859375,3.591552734375-0.48193359375t3.637451171875-0.16064453125q-0.091796875-0.57373046875-0.0458984375-1.181884765625t0.0458984375-1.227783203125q0-1.35400390625-0.06884765625-3.14404296875t-0.20654296875-3.6259765625t-0.355712890625-3.614501953125t-0.493408203125-3.1669921875t-0.585205078125-2.214599609375t-0.677001953125-0.826171875q-0.71142578125,0.0458984375-1.342529296875,1.227783203125t-1.1474609375,3.00634765625t-0.94091796875,4.0849609375t-0.71142578125,4.417724609375t-0.470458984375,4.01611328125t-0.2294921875,2.8916015625z M116.23703613281,26.95947265625q0-0.275390625,0.263916015625-0.4130859375t0.57373046875-0.20654296875t0.562255859375-0.06884765625l0.25244140625,0q0.80322265625,0,1.158935546875,0.3671875t0.860595703125,0.94091796875q3.4423828125,4.97998046875,6.31103515625,10.246826171875t5.53076171875,10.659912109375q0.2294921875-6.2880859375,0.470458984375-12.656494140625t0.608154296875-12.633544921875q0-0.275390625,0.263916015625-0.458984375t0.5966796875-0.275390625t0.677001953125-0.11474609375t0.52783203125-0.02294921875q0.275390625,0,0.608154296875,0.02294921875t0.66552734375,0.1376953125t0.55078125,0.275390625t0.218017578125,0.43603515625q0.091796875,0.98681640625,0.103271484375,1.985107421875t0.011474609375,1.985107421875q0,7.3896484375-0.3212890625,14.48095703125t-0.3212890625,14.3203125l0,1.65234375q0,0.091796875-0.091796875,0.275390625q0.0458984375,0.18359375,0.1376953125,0.401611328125t0.091796875,0.309814453125q0,0.3671875-0.378662109375,0.55078125t-0.826171875,0.286865234375t-0.791748046875,0.103271484375t-0.25244140625,0q-1.17041015625,0-1.9736328125-0.642578125t-0.80322265625-1.53759765625q-1.6982421875-3.8095703125-3.385009765625-7.561767578125t-3.522705078125-7.469970703125q-1.17041015625-2.3408203125-2.352294921875-4.693115234375t-2.535888671875-4.555419921875q0.0458984375,0.0458984375,0.0458984375,0.1376953125q0.2294921875,2.294921875,0.493408203125,4.578369140625t0.401611328125,4.578369140625q0.091796875,1.9736328125,0.20654296875,3.9931640625t0.3671875,3.9931640625q0,0.75732421875-0.470458984375,0.9638671875t-1.090087890625,0.20654296875q-0.52783203125,0-0.998291015625-0.1376953125t-0.562255859375-0.6884765625q0-2.111328125-0.16064453125-4.486572265625t-0.29833984375-4.784912109375q-0.2294921875-3.18994140625-0.608154296875-6.483154296875t-0.378662109375-6.437255859375q0-0.1376953125,0.02294921875-0.286865234375t0.02294921875-0.332763671875q-0.1376953125-0.2294921875-0.309814453125-0.48193359375t-0.172119140625-0.458984375z M141.72604492187,42.56494140625q0-3.947265625,0.218017578125-7.802734375t0.539306640625-7.802734375q0.091796875-1.03271484375,0.11474609375-1.99658203125t0.218017578125-1.686767578125t0.6884765625-1.1474609375t1.526123046875-0.424560546875q0.66552734375,0,1.388427734375,0.2294921875t0.722900390625,1.07861328125q0,3.18994140625-0.263916015625,6.276611328125t-0.355712890625,6.138916015625q2.50146484375-2.82275390625,5.34716796875-5.266845703125t6.03564453125-4.830810546875q0.458984375-0.3212890625,1.17041015625-0.34423828125q0.2294921875,0,0.401611328125,0.02294921875t0.355712890625,0.06884765625q0.2294921875,0.091796875,0.470458984375,0.218017578125t0.240966796875,0.355712890625q0,0.18359375-0.20654296875,0.3212890625q-2.38671875,1.927734375-4.716064453125,3.92431640625t-4.440673828125,4.2685546875q0.275390625,0.52783203125,0.470458984375,0.98681640625t0.424560546875,0.98681640625q1.927734375,4.56689453125,3.293212890625,9.351806640625t2.903076171875,9.489501953125q0.1376953125,0.52783203125,0.401611328125,1.090087890625t0.493408203125,1.12451171875t0.401611328125,1.0556640625t0.172119140625,0.814697265625q0,0.4130859375-0.263916015625,0.654052734375t-0.608154296875,0.378662109375t-0.745849609375,0.18359375t-0.745849609375,0.0458984375q-0.80322265625,0-1.434326171875-0.2294921875t-0.998291015625-1.03271484375q-1.6982421875-5.416015625-3.270263671875-10.83203125t-3.178466796875-10.923828125q-0.52783203125,0.52783203125-1.0556640625,1.319580078125t-0.9638671875,1.457275390625q0,3.4423828125,0.16064453125,6.8388671875t0.55078125,6.8388671875q0.091796875,0.98681640625,0.309814453125,1.9736328125t0.218017578125,2.01953125q0,0.75732421875-0.7802734375,1.0556640625t-1.72119140625,0.29833984375q-1.03271484375,0-1.549072265625-0.20654296875t-0.734375-0.539306640625t-0.263916015625-0.734375t-0.1376953125-0.768798828125q-0.52783203125-3.6259765625-0.66552734375-7.171630859375t-0.1376953125-7.125732421875z M165.10372558594,56.47216796875q0-0.1376953125,0.091796875-0.975341796875t0.240966796875-2.04248046875t0.332763671875-2.59326171875t0.3212890625-2.627685546875t0.240966796875-2.18017578125t0.103271484375-1.26220703125q-0.18359375-0.091796875-0.447509765625-0.263916015625t-0.263916015625-0.401611328125q0-0.3212890625,0.309814453125-0.516357421875t0.539306640625-0.286865234375q0.091796875-1.17041015625,0.2294921875-3.2587890625t0.424560546875-4.509521484375t0.80322265625-4.9111328125t1.365478515625-4.52099609375t2.04248046875-3.316162109375t2.9375-1.28515625t2.8916015625,1.1015625t1.870361328125,2.86865234375t1.1015625,3.92431640625t0.57373046875,4.29150390625t0.240966796875,3.9931640625t0.091796875,2.9833984375q0.0458984375,0.71142578125,0.34423828125,0.952392578125t0.654052734375,0.332763671875t0.642578125,0.20654296875t0.286865234375,0.57373046875q0,0.52783203125-0.642578125,0.734375t-1.009765625,0.25244140625q0.2294921875,2.86865234375,0.631103515625,5.6455078125t1.067138671875,5.599609375q0.091796875,0.52783203125,0.25244140625,1.067138671875t0.16064453125,1.044189453125q0,0.3671875-0.25244140625,0.608154296875t-0.654052734375,0.378662109375t-0.80322265625,0.18359375t-0.677001953125,0.0458984375q-1.03271484375,0-1.744140625-0.39013671875t-0.94091796875-1.49169921875q-0.61962890625-2.96044921875-1.21630859375-6.21923828125q-0.5048828125-2.82275390625-0.5048828125-5.48486328125q0-0.4130859375,0.02294921875-0.826171875q-1.927734375,0-3.87841796875,0.091796875t-3.74072265625,0.6884765625q-0.0458984375,0.61962890625-0.2294921875,2.3408203125t-0.4130859375,3.69482421875t-0.470458984375,3.775146484375t-0.286865234375,2.558837890625q-0.0458984375,0.3212890625-0.470458984375,0.608154296875t-0.91796875,0.309814453125t-0.8720703125-0.309814453125t-0.378662109375-1.181884765625z M169.39522949219,42.56494140625q1.7900390625-0.4130859375,3.591552734375-0.48193359375t3.637451171875-0.16064453125q-0.091796875-0.57373046875-0.0458984375-1.181884765625t0.0458984375-1.227783203125q0-1.35400390625-0.06884765625-3.14404296875t-0.20654296875-3.6259765625t-0.355712890625-3.614501953125t-0.493408203125-3.1669921875t-0.585205078125-2.214599609375t-0.677001953125-0.826171875q-0.71142578125,0.0458984375-1.342529296875,1.227783203125t-1.1474609375,3.00634765625t-0.94091796875,4.0849609375t-0.71142578125,4.417724609375t-0.470458984375,4.01611328125t-0.2294921875,2.8916015625z"/><path fill="#" d=""/></svg>
